<svg xmlns="http://www.w3.org/2000/svg" viewBox="0 0 64 64" role="img" aria-labelledby="title">
  <title>Sogni favicon</title>
  <rect width="64" height="64" rx="16" fill="#050704"/>
  <path d="M44.66 18.89c-2.65-2.22-6.54-3.45-10.95-3.45-9.84 0-16.47 5.17-16.47 12.87 0 5.74 4.11 9.64 12.23 11.59l5.28 1.27c4.19 1.02 5.89 2.23 5.89 4.19 0 2.88-2.94 4.74-7.48 4.74-4.62 0-8.06-1.72-10.23-5.1l-6.55 3.76c3.18 5.27 8.89 8.04 16.51 8.04 10.14 0 16.95-5.2 16.95-12.94 0-5.82-3.71-9.18-12.82-11.58l-5.01-1.31c-3.96-1.02-5.63-2.22-5.63-4.06 0-2.59 2.63-4.51 6.23-4.51 3.27 0 5.72.86 7.92 2.79l6.13-6.3Z" fill="#d557ff"/>
</svg>
